# xmcd
#
# Track frame offsets:
#       150
#       20657
#       31045
#       51272
#       64618
#       84974
#       97270
#       111678
#       127904
#       145896
#       154881
#       162242
#       176964
#       188676
#       203797
#       220159
#       239583
#       246515
#       265204
#
# Disc length: 3671 seconds
#
# Revision: 0
# Processed by: cddbd v1.4b42PL1 Copyright (c) Steve Scherf et al.
# Submitted via: CD-DA_X-Tractor v0.21
#
DISCID=1a0e5513
DTITLE=Various Artist - O'Brother, Where art thou
DYEAR=1900
DGENRE=
TTITLE0=PO LAZARUS
TTITLE1=BIG ROCK CANDY MOUNTAIN
TTITLE2=YOU ARE MY SUNSHINE
TTITLE3=DOWN TO THE RIVER TO PRAY
TTITLE4=I AM A MAN OF CONSTANT SORROW
TTITLE5=HARD TIME KILLING FLOOR BLUES
TTITLE6=I AM A MAN OF CONSTANT SORROW
TTITLE7=KEEP ON THE SUNNY SIDE
TTITLE8=I'LL FLY AWAY
TTITLE9=DIDN'T LEAVE NOBODY BUT THE BABY
TTITLE10=IN THE HIGHWAYS
TTITLE11=I AM WEARY (LET ME REST)
TTITLE12=I AM A MAN OF CONSTANT SORROW
TTITLE13=O DEATH
TTITLE14=IN THE JAILHOUSE NOW
TTITLE15=I AM A MAN OF CONSTANT SORROW
TTITLE16=INDIAN WAR WHOOP
TTITLE17=LONESOME VALLEY
TTITLE18=ANGEL BAND
EXTD=
EXTT0=
EXTT1=
EXTT2=
EXTT3=
EXTT4=
EXTT5=
EXTT6=
EXTT7=
EXTT8=
EXTT9=
EXTT10=
EXTT11=
EXTT12=
EXTT13=
EXTT14=
EXTT15=
EXTT16=
EXTT17=
EXTT18=
PLAYORDER=
